<svg xmlns="http://www.w3.org/2000/svg" viewBox="0 0 89.36 86.53">
    <defs>
        <style>.cls-1{fill:#e9593d;}.cls-2{fill:#fff;}</style>
    </defs>
    <title>add-recipe</title>
    <g id="add-recipe">
        <g id="fork-knife">
            <path class="cls-1" d="M78.1,1a3.42,3.42,0,0,0-5.84,2.42v65H79.1V47.88h6.84a3.42,3.42,0,0,0,3.42-3.42C89.36,12.63,78.56,1.46,78.1,1Zm1,40V17.93A87.67,87.67,0,0,1,82.47,41Z"/>
            <path class="cls-1" d="M65.42,13.68V0H58.58V13.68a6.83,6.83,0,0,1-3.42,5.89V0H48.32V19.57a6.81,6.81,0,0,1-3.42-5.89V0H38.06V13.68a13.68,13.68,0,0,0,10.26,13.2V68.4h6.84V26.88A13.68,13.68,0,0,0,65.42,13.68Z"/>
        </g>
        <g id="add">
            <circle class="cls-1" cx="27.36" cy="59.17" r="27.36"/>
            <path id="plus-sign" class="cls-2" d="M42.24,61.64H30v12.9H24.64V61.64H12.48v-5H24.64V43.79H30V56.66H42.24Z"/>
        </g>
    </g>
</svg>
