<svg xmlns="http://www.w3.org/2000/svg" viewBox="0 0 252.9 281.65">
    <defs>
    <style>.cls-red-fill{fill:#eb6b52;}</style>
    </defs>
    <title>apple</title>
    <path class="cls-red-fill" d="M90.23,121.9A142.47,142.47,0,0,1,92,88.72C51.52,102,35.94,40.87,35.52,9.76,35.46,5,40-.62,45.22.06,61.57,2.18,74.54,10,82.41,24.87c6.36,12,9.64,26.54,17.51,37.81a97.73,97.73,0,0,1,31-38.66c10-7.53,19.66,9.33,9.79,16.75-24.92,18.73-32.27,47.91-31.22,77.42,17.4-5.39,28.5-24,45.76-30.35,13.88-5.13,30.33-4.7,44.38.23,28.25,9.91,49.76,29.48,52.6,60.74,3.37,37-5,80.69-26.93,111.17-15.74,21.89-41.45,19.35-65.3,20.89C94.29,285.12,18.82,274,1.7,198.26-10.42,144.72,44.72,116.19,90.23,121.9ZM83.17,71c-8.41-15.87-13.48-38-27.07-47.33C58.79,43.75,66.48,73.09,83.17,71ZM25.83,165.49c-14.57,29.12,4,65.28,30.8,80.62,38.35,22,81.89,17.62,124.27,14.69,49-3.39,74.24-110.71,37.39-140.94-28.57-23.44-53.84-16.9-80.72,3.87-7.12,5.5-13.7,9.81-21.07,12.46-1.07,5.69-7.61,11.11-14.73,8.06C77.06,133.68,39.19,138.79,25.83,165.49Z"/>
</svg>
