<svg xmlns="http://www.w3.org/2000/svg" viewBox="0 0 81.77 223.67">
    <defs>
        <style>.cls-red-fill{fill:#eb6b52;}</style>
    </defs>
    <title>carrot</title>
    <path class="cls-red-fill" d="M80.85,35.28C64.08,55.22,63.72,86,40.42,99.54l.14.07c9,5.55,14.52,11.52,13.63,22.57-.08,1-.23,2-.34,2.94,1.79,1.74,1.9,5.08-.86,6C50.57,145,45.5,158.74,41,171.87c-4.1,12-8.88,24.39-14.83,35.57C22.4,214.51,17.76,222.82,9,223.66a3.55,3.55,0,0,1-3.26-1.81c-10.79-24.17-3.42-51.77-1.31-77,1-11.53-3-27.14,3.92-37.5,4.5-6.79,9.65-8.64,15.59-9C16.85,83.83,10.44,66.9,13.82,50.66,14.79,46,22,47.83,21,52.49c-2.29,11,.93,22.85,5.41,33.57,1.18-12.14,3.08-24.22,3.28-36.5.21-13.24,0-26.76,5.92-38.92C37.68,6.35,44.1,10,42,14.31,35.6,27.56,37.79,42.76,36.86,57c-.7,10.62-2.37,21.28-3.32,31.92C41.09,74,44.68,55.83,48.61,40.17,52.17,26,55.37,11.38,66.43,1,69.9-2.22,75.19,3,71.7,6.23,58.76,18.33,56.59,39,51.86,55.32c-3.43,11.82-5.88,24.06-11,35.21,18-13.85,20.24-43.25,34.7-60.44C78.65,26.44,83.91,31.65,80.85,35.28ZM37.13,106.19c-7-.34-18.49-3.88-22.36,4.85a32.67,32.67,0,0,0-2.47,9.45,21.52,21.52,0,0,1,2,1c.43.25.85.51,1.29.75.27.15,1.44.56.35.22a3.7,3.7,0,1,1-1.83,7.17,12.41,12.41,0,0,1-2.19-1c0,1.29,0,2.58,0,3.86a151.07,151.07,0,0,1-.75,17.59,3.38,3.38,0,0,1,.27.36c1.61,2.48,4.81,3.87,7.56,4.62,4.6,1.26,2.75,8.42-1.86,7.16a25.46,25.46,0,0,1-7.12-3.1c-1.17,9.55-2.51,19.15-2.68,28.78.34.16.37.28.68.53,2,1.61,4.59,1.91,7,2.52,4.78,1.22,2.95,8.39-1.83,7.17a59.09,59.09,0,0,1-5.87-1.85c.63,8.46,2.87,21.18,6.37,17,6.91-8.34,11.82-19.54,15.85-30.62A32.89,32.89,0,0,1,18.34,179c-4.24-2.19-.57-8.62,3.66-6.43a22.93,22.93,0,0,0,10.09,2.82c1.1-3.27,2.15-6.46,3.17-9.51,2.17-6.53,4.33-13.07,6.23-19.68-6.22.19-14-.36-18.38-4.55-3.44-3.3,1.75-8.58,5.2-5.27,1.81,1.74,5.58,2,8,2.16a56.77,56.77,0,0,0,7.26.15c.55-2.19,1-4.4,1.5-6.61a42.73,42.73,0,0,1-10.9-1.11c-4.65-1.1-2.81-8.27,1.83-7.17a35.16,35.16,0,0,0,10.37.91C47.33,116.47,45.75,111.57,37.13,106.19Z"/>
</svg>
