<svg xmlns="http://www.w3.org/2000/svg" viewBox="0 0 552.76 585.92">
    <defs>
        <style>.cls-red-fill{fill:#eb6b52;}</style>
    </defs>
    <title>hat</title>
    <g>
        <path class="cls-red-fill" d="M174.88,90.14C180.12,49.66,227.33,14,263,3.08c41.26-12.63,87,15.51,113.94,50C431.13,7.39,513.22,36.21,542.75,98.72c32.51,68.86-18.38,162.75-91.6,175.42a12,12,0,0,1-4.92-.12c2,63.63,5.11,127.24,5.59,190.92a10.41,10.41,0,0,1,3.84,8.33c.25,21.31,3.5,42.42,3.75,63.74a11.7,11.7,0,0,1-.59,3.72,11.23,11.23,0,0,1-5,9.74C434,564.39,404.75,571,381.43,562.85a12.42,12.42,0,0,1-3.15-1.69c-36.77,7.85-74.4,3-111,11.06-28.5,6.3-55.86,15-85.32,13.53-4.82-.25-9.74-3.22-10.84-8.26C166.62,556.94,168.7,536,164,515.6a10.67,10.67,0,0,1-4.54-8.59c-1.56-35.56-15.13-67.53-20.6-102.25-4.35-27.55-7.11-55-15-81.52C33.19,322.73-34.35,223.06,18.72,141.48,54.36,86.69,121.12,63.26,174.88,90.14Zm262,444.45c-.36-16.66-2.3-33.21-3.2-49.84-83.16,2.65-163.83,26.51-246.95,29.46,3,16.28,2.29,32.6,4.65,49,29-1,55.34-12.69,84.36-15,35.54-2.77,71.09-1.23,105.74-10.84a10.31,10.31,0,0,1,12.47,5.45C408.32,545.63,424,541.85,436.83,534.59ZM38.14,152.83c-37,67,5.14,143.7,80.16,147.79,2.89-8.15,17.81-9.84,22,.93C154.08,337,153.39,374,162.8,410.28c7.06,27.18,14.82,53.88,17.92,81.65,83.75-1.94,164.93-26.13,248.57-29.52-.79-92.66-7-185.18-7.37-277.85-.06-14.51,22.43-14.5,22.49,0,.09,22.61.53,45.21,1.16,67.81,60.44-10.79,107.56-92.88,74.13-150-26.85-45.82-88.29-67.75-130.17-30.36,1.7,3.12,3.27,6.25,4.6,9.35,5.67,13.17-13.71,24.65-19.42,11.35-14.13-32.86-64.31-84.54-105.77-68-29.54,11.79-75,41-72,77.3a12,12,0,0,1-.06,2.63,124.34,124.34,0,0,1,15.51,15.67c9.19,11.07-6.63,27.08-15.9,15.9C152.92,83.74,71.74,92,38.14,152.83Z"/>
        <path class="cls-red-fill" d="M242.35,412.52c3.09,14.17,24.77,8.16,21.69-6C249.31,339,238,270.65,219,204.07c-4-13.93-25.66-8-21.69,6C216.28,276.63,227.62,345,242.35,412.52Z"/>
        <path class="cls-red-fill" d="M339.43,398.28c.12,14.5,22.61,14.51,22.5,0-.53-64.12-7.13-128.23-22.9-190.46-3.57-14.06-25.26-8.09-21.69,6C332.63,274.16,338.92,336.1,339.43,398.28Z"/>
    </g>
</svg>
