<svg xmlns="http://www.w3.org/2000/svg" viewBox="0 0 564.05 601.26">
<defs>
<style>
.cls-memphis{fill:#fff;fill-rule:evenodd;}
</style>
</defs>
<title>memphis-background</title>
<g id="memphis-background" data-name="memphis-background">
        <path class="cls-memphis" d="M259.34,71.73c3.08.4,6.46.63,10,.74,6.23.19,13.05,0,19.9-.27,9.49-.4,19-1,27.14-1.26a.91.91,0,0,1,1-.4.88.88,0,0,1,.51.37H318a.9.9,0,1,1,0,1.8h-.09c-.24,1.71-.43,3.38-.59,5-.91,9.4-.62,17.79-.48,26.94.06,3.61.09,7.34,0,11.3a109.53,109.53,0,0,0,.44,13.91.91.91,0,0,1-1.81,0v0c-15.88-1.14-39.5,1.25-56.38,1.72a.9.9,0,0,1-.9-.9.9.9,0,0,0,0-1.2c0-19-.35-37.92-.4-56.88a.9.9,0,0,1,.9-.9l.21,0A1,1,0,0,1,259.34,71.73Z"/>
        <path class="cls-memphis" d="M387.91,129.81a.89.89,0,0,1,1,.52.87.87,0,0,1,0,.69c.16.18.31.37.46.55a.9.9,0,0,1-1.79.06c-19.1,2.44-36-.26-55.58-.44a.9.9,0,0,1-.9-.9c0-19,.33-37.94.39-56.91l-.53-.54a.9.9,0,0,1,0-1.27.87.87,0,0,1,.69-.26.89.89,0,0,1,.75-.4.9.9,0,0,1,.9.9v.82c10.87,10.87,18.35,18.93,28.58,30.74C370.26,113,379.58,120.12,387.91,129.81Z"/>
        <path class="cls-memphis" d="M404,72.5c1.73,2.23,3.4,4.35,5.06,6.38a112.1,112.1,0,0,0,13.77,14.53A89.31,89.31,0,0,0,430.05,99l.22.16a.9.9,0,0,1,1.23,1.31c-7.74,7.84-14.55,14.94-22.47,22.77a76.18,76.18,0,0,0-6.5,7.57.94.94,0,0,1-.19.42c-.82,1-.49.85-1.71.83a2,2,0,0,1-.05-1.2.13.13,0,0,1-.06-.07c-.24-.18-.53-.38-.77-.54-15-10.32-15.94-15-28.59-26.82a.76.76,0,0,1-.3-.29,1,1,0,0,1-.16-.52h0v0h0v0h0v0h0v0h0v0h0v0h0v0h0v0h0v0h.07a1,1,0,0,1,.28-.22c10.8-11.58,19.54-19.19,31.45-29.51l.05,0h.94l0,0h.05l0,0h0a.89.89,0,0,1,.2.19h0v0Z"/>
        <path class="cls-memphis" d="M388.62,210.87a.9.9,0,0,0-1,.52.87.87,0,0,0,0,.69c-.16.18-.31.36-.46.55a.9.9,0,0,0,1.79.06c19.1,2.44,36-.26,55.58-.44a.9.9,0,0,0,.91-.9c-.05-19-.34-37.94-.4-56.92l.53-.53a.9.9,0,0,0,0-1.27,5.69,5.69,0,0,1-1.44-.67.91.91,0,0,0-.9.91v.82c-10.87,10.87-18.35,18.93-28.57,30.74C406.27,194.09,397,201.18,388.62,210.87Z"/>
        <path class="cls-memphis" d="M387.91,281.76a.89.89,0,0,1,1,.52.87.87,0,0,1,0,.69c.16.18.31.37.46.55a.89.89,0,0,1-1,.82.9.9,0,0,1-.81-.76c-19.1,2.44-36-.25-55.58-.44a.9.9,0,0,1-.9-.9c0-19,.33-37.94.39-56.91l-.53-.53a.91.91,0,0,1,0-1.28,1,1,0,0,1,.69-.26.89.89,0,0,1,.75-.4.9.9,0,0,1,.9.9v.82c10.87,10.87,18.35,18.94,28.58,30.75C370.26,265,379.58,272.08,387.91,281.76Z"/>
        <path class="cls-memphis" d="M182.48,362.82a.88.88,0,0,0-1,.52.87.87,0,0,0,0,.69l-.46.55a.9.9,0,0,0,1.79.06c19.1,2.44,36-.26,55.59-.44a.9.9,0,0,0,.9-.9c0-19-.34-37.94-.4-56.91l.54-.53a2,2,0,0,0-1.44-1.94.9.9,0,0,0-.9.9v.82c-10.88,10.87-18.35,18.94-28.58,30.75C200.13,346.05,190.82,353.14,182.48,362.82Z"/>
        <path class="cls-memphis" d="M166.4,305.51c-1.73,2.23-3.4,4.35-5.05,6.38a112.1,112.1,0,0,1-13.77,14.53,91.31,91.31,0,0,1-7.24,5.62l-.21.16a.91.91,0,1,0-1.24,1.32c7.75,7.84,14.55,14.93,22.48,22.76a75.2,75.2,0,0,1,6.49,7.58.91.91,0,0,0,.2.42c.82,1,.48.84,1.7.82a1.9,1.9,0,0,0,.06-1.19l.06-.07c.24-.19.52-.39.77-.55,15-10.32,15.94-15.05,28.59-26.81a.93.93,0,0,0,.29-.3.87.87,0,0,0,.16-.52h0v0h0v0h0v0h0v0h0v0h0v0h-.09v0h0a.8.8,0,0,0-.29-.23c-10.79-11.58-19.54-19.19-31.45-29.51l-.05,0h-.34l-.08,0h-.51l0,0h-.09a.73.73,0,0,0-.2.19h0v0Z"/>
        <path class="cls-memphis" d="M181.77,433.71a.91.91,0,0,1,1,1.21l.46.56a.9.9,0,0,1-1.79,0c-19.1,2.45-36-.25-55.59-.43a.9.9,0,0,1-.9-.9c0-19,.34-37.94.4-56.92l-.54-.53a.9.9,0,0,1,0-1.27.87.87,0,0,1,.69-.26.89.89,0,0,1,.75-.41.9.9,0,0,1,.9.91v.82c10.88,10.87,18.35,18.93,28.58,30.74C164.12,416.94,173.44,424,181.77,433.71Z"/>
        <path class="cls-memphis" d="M197.85,376.41c1.74,2.22,3.4,4.34,5.06,6.38a111.37,111.37,0,0,0,13.77,14.52,87.32,87.32,0,0,0,7.24,5.62l.21.17a.9.9,0,1,1,1.23,1.31c-7.74,7.84-14.54,14.94-22.47,22.76a78.91,78.91,0,0,0-6.5,7.58.85.85,0,0,1-.19.42c-.82,1-.48.85-1.7.83a1.93,1.93,0,0,1-.06-1.2l-.06-.07c-.24-.19-.53-.38-.77-.55-15-10.31-15.94-15-28.59-26.81a.74.74,0,0,1-.29-.29.92.92,0,0,1-.17-.52h0v0h0v0h0v0h0v0h0v0h0v0h0v0h0v0h0v0h0v0h.05a.83.83,0,0,1,.28-.22c10.8-11.58,19.55-19.19,31.45-29.51l.06-.05h.34l.08,0h.39l0,0h.08l0,0h.09a.72.72,0,0,1,.2.19h0l0,0Z"/>
        <path class="cls-memphis" d="M182.48,514.77a.91.91,0,0,0-1,.52.87.87,0,0,0,0,.69l-.46.56a.9.9,0,0,0,1.79.05c19.1,2.45,36-.25,55.59-.43a.9.9,0,0,0,.9-.9c0-19-.34-37.94-.4-56.92l.54-.53a.9.9,0,0,0,0-1.27.87.87,0,0,0-.69-.26.89.89,0,0,0-.75-.41.9.9,0,0,0-.9.9v.83c-10.88,10.86-18.35,18.93-28.58,30.74C200.13,498,190.82,505.09,182.48,514.77Z"/>
        <path class="cls-memphis" d="M238.84,1.23c-3.08.4-6.46.63-10,.74-6.23.19-13.05,0-19.9-.28-9.49-.4-19-1-27.14-1.25a.92.92,0,0,0-1-.41,1,1,0,0,0-.51.37h0a.9.9,0,0,0,0,1.8h.09c.24,1.72.43,3.39.59,5,.91,9.4.62,17.79.48,27-.06,3.61-.09,7.34,0,11.29a109.47,109.47,0,0,1-.44,13.91.91.91,0,0,0,1.81,0h0c15.88-1.15,39.5,1.24,56.38,1.71a.9.9,0,0,0,.9-.9.91.91,0,0,0-.23-.6A.91.91,0,0,0,240,59c0-19,.35-37.91.4-56.88a.91.91,0,0,0-.91-.9l-.2,0A.86.86,0,0,0,238.84,1.23Z"/>
        <path class="cls-memphis" d="M125.64,72.89c1.73,2.23,3.4,4.35,5,6.38A112.1,112.1,0,0,0,144.46,93.8a91.31,91.31,0,0,0,7.24,5.62,1.16,1.16,0,0,1,.21.16.91.91,0,0,1,1.28,0,.9.9,0,0,1,0,1.27c-7.75,7.84-14.55,14.94-22.47,22.77a74.88,74.88,0,0,0-6.5,7.57.86.86,0,0,1-.2.42c-.81,1-.48.85-1.7.83a2.09,2.09,0,0,1-.06-1.2l-.06-.07c-.24-.18-.52-.38-.76-.54-15.05-10.32-15.94-15-28.6-26.82a.8.8,0,0,1-.29-.29.91.91,0,0,1-.16-.52h0v0h0v0h0v0h0v0h0v0h0v0h0v0h0v0h0v0h0v0h.08a.85.85,0,0,1,.28-.22c10.8-11.58,19.54-19.19,31.45-29.51l0,0h.93l0,0h.06l0,0h0a.69.69,0,0,1,.19.19h0v0h0Z"/>
        <path class="cls-memphis" d="M334.44,309.84c3.07.4,6.46.63,10,.74,6.23.19,13,0,19.9-.28,9.49-.4,19-1,27.14-1.25a.89.89,0,0,1,1.52,0h.06a.9.9,0,1,1,0,1.8H393c-.24,1.72-.43,3.39-.59,5-.91,9.4-.62,17.79-.48,27,.06,3.61.09,7.34,0,11.29a113.3,113.3,0,0,0,.44,13.91.9.9,0,0,1-1.8,0h0c-15.88-1.15-39.5,1.25-56.38,1.71a.9.9,0,0,1-.9-.9.9.9,0,0,0,0-1.2c-.05-19-.35-37.91-.4-56.88a.91.91,0,0,1,.9-.9l.2,0A.9.9,0,0,1,334.44,309.84Z"/>
        <path class="cls-memphis" d="M463,367.91a.91.91,0,0,1,1,.52.87.87,0,0,1,0,.69l.46.56a.89.89,0,0,1-1,.81.9.9,0,0,1-.81-.76c-19.1,2.44-36-.25-55.58-.44a.9.9,0,0,1-.91-.9c.05-19,.34-37.94.4-56.91l-.53-.53a.9.9,0,0,1,0-1.27.92.92,0,0,1,.69-.27.89.89,0,0,1,.75-.4.9.9,0,0,1,.9.9v.82c10.87,10.87,18.35,18.94,28.57,30.75C445.36,351.14,454.68,358.23,463,367.91Z"/>
        <path class="cls-memphis" d="M96.27,169l2.41,3.1c-.82,52.19.25,105.31-.07,157.29-1.88,2.26-3.68,4.52-5.29,6.63.47-55.5-.77-112.3.22-168.09l.21,0h.31a2.29,2.29,0,0,1,.37,0h.25l.12,0h.06l.12,0,0,0h0l0,0h.08l0,0h0l.11,0,0,0h0l0,0h0l0,0h0l.06,0,0,0h0a2.65,2.65,0,0,1,.57.54l0,0,0,0,0,.05,0,0Zm6.9,8.8q2.58,3.28,5.14,6.45c-.47,44.54.25,89.63.13,134-1.63,1.72-3.42,3.69-5.26,5.78.21-48.39-.66-97.65,0-146.24Zm9.65,12c1.72,2.09,3.45,4.15,5.17,6.19-.23,37.43.25,75.17.25,112.47L113,313.69c.06-41.06-.52-82.66-.17-123.87Zm9.71,11.44q2.58,2.94,5.2,5.8c-.08,30.51.22,61.18.28,91.61q-2.59,2.63-5.23,5.26c0-34.08-.41-68.47-.25-102.67Zm9.75,10.65q2.57,2.68,5.22,5.31c0,23.85.19,47.77.27,71.57l-5.22,5.3c-.07-27.31-.31-54.79-.27-82.18Zm9.78,9.73q2.56,2.43,5.23,4.81c0,17.47.14,35,.22,52.4l-5.21,5.32c-.08-20.8-.23-41.68-.24-62.53Zm9.8,8.81q2.56,2.18,5.23,4.34.06,17.07.16,34.11L152,274.23q-.1-21.87-.18-43.78Zm9.8,8q2.57,2,5.24,3.93,0,8.32.08,16.64l-5.2,5.31q-.08-12.94-.12-25.88Zm9.81,7.21.17.11c.22.15.42.31.62.47a2.61,2.61,0,0,1,3.57,3.8l-4.32,4.37,0-8.75ZM88.73,341.37c-.46,0-1.12,0-2.17,0a5.72,5.72,0,0,1-.17-3.46c-.06-.06-.11-.13-.17-.2-.69-.54-1.52-1.1-2.21-1.58l-.47-.32c.44-52.7-.66-106.58.08-159.64l5.29-4.58c-.9,56.38.41,113.85-.18,169.82ZM79,332.61q-2.72-1.92-5.21-3.76c.28-47.64-.57-96.16-.08-144.1l5.27-4.6c-.61,50.68.39,102.12,0,152.46Zm-9.74-7.16c-1.83-1.4-3.56-2.77-5.22-4.11.15-42.34-.49-85.32-.18-127.92,1.73-1.53,3.48-3.08,5.25-4.63-.39,45.47.37,91.47.15,136.66Zm-9.75-7.86q-2.76-2.34-5.23-4.59c0-36.72-.42-73.87-.26-110.78,1.74-1.57,3.48-3.14,5.24-4.71-.22,40,.34,80.31.25,120.08Zm-9.78-8.83c-1.81-1.75-3.55-3.48-5.24-5.21,0-30.66-.33-61.57-.28-92.35q2.61-2.41,5.23-4.82c-.09,34.11.3,68.43.29,102.38Zm-9.79-10c-1.76-1.89-3.49-3.78-5.25-5.72-.06-24.14-.26-48.42-.27-72.65q2.61-2.49,5.22-4.95c0,27.78.25,55.65.3,83.32ZM30.15,288q-2.53-2.8-5.26-5.76c-.07-17.42-.18-34.9-.22-52.36,1.75-1.72,3.48-3.42,5.22-5.11,0,21.08.19,42.2.26,63.23Zm-9.83-10.66c-1.67-1.76-3.41-3.57-5.26-5.45q-.08-16.08-.14-32.19c1.74-1.79,3.48-3.55,5.2-5.28q.07,21.47.2,42.92Zm-9.83-10q-2.5-2.46-5.26-5.1l-.06-12.35q2.63-2.79,5.21-5.47,0,11.47.11,22.92ZM.66,258a2.75,2.75,0,0,1-.19-.28A2.58,2.58,0,0,1,0,256.2H0v-.13H0V256H0v-.43h0v-.05h0v-.07h0v-.05h0v-.12h0v-.12h0v0h0v0l0,0v0l0,0h0l0,0v0h0l0,0h0l0,0,0,0v0l0,0h0l0,0v0l0,0h0l0,0,0,0h0l0,0h0l0-.05Z"/>
        <path class="cls-memphis" d="M264.64,399.61c-2.68-3.51,3.84-9.58,8.57-8.24,13.71,3.86,1.69,18.58-5.75,12.25-1.81-1.53-2.65-2.86-2.82-4Zm0,24.16c-2.68-3.5,3.84-9.58,8.57-8.24,13.71,3.87,1.69,18.58-5.75,12.26-1.81-1.54-2.65-2.86-2.82-4Zm26.46,0c-2.67-3.5,3.85-9.58,8.58-8.24,13.71,3.87,1.69,18.58-5.76,12.26-1.8-1.54-2.65-2.86-2.82-4Zm0-24.16c-2.67-3.51,3.85-9.58,8.58-8.24,13.71,3.86,1.69,18.58-5.76,12.25C292.12,402.09,291.27,400.76,291.1,399.61Z"/>
        <path class="cls-memphis" d="M338.93,476.72c-2.68-3.5,3.84-9.57,8.57-8.24,13.71,3.87,1.69,18.59-5.76,12.26-1.8-1.53-2.65-2.86-2.81-4Zm0,24.17c-2.68-3.51,3.84-9.58,8.57-8.24,13.71,3.87,1.69,18.58-5.76,12.26-1.8-1.54-2.65-2.86-2.81-4Zm26.46,0c-2.68-3.51,3.85-9.58,8.58-8.24,13.7,3.87,1.69,18.58-5.76,12.26-1.81-1.54-2.65-2.86-2.82-4Zm0-24.17c-2.68-3.5,3.85-9.57,8.58-8.24,13.7,3.87,1.69,18.59-5.76,12.26C366.4,479.21,365.56,477.88,365.39,476.72Z"/>
        <path class="cls-memphis" d="M189.35,92.08c-2.68-3.5,3.84-9.57,8.57-8.24,13.71,3.87,1.69,18.59-5.75,12.26-1.81-1.53-2.65-2.86-2.82-4Zm0,24.17c-2.68-3.51,3.84-9.58,8.57-8.24,13.71,3.87,1.69,18.58-5.75,12.26-1.81-1.54-2.65-2.87-2.82-4Zm26.46,0c-2.67-3.51,3.85-9.58,8.58-8.24,13.71,3.87,1.69,18.58-5.76,12.26-1.8-1.54-2.65-2.87-2.82-4Zm0-24.17c-2.67-3.5,3.85-9.57,8.58-8.24,13.71,3.87,1.69,18.59-5.76,12.26C216.83,94.57,216,93.24,215.81,92.08Z"/>
        <path class="cls-memphis" d="M385.33,419.23A27.82,27.82,0,1,1,356.71,390v29.21Z"/>
        <path class="cls-memphis" d="M455.67,527.89a27.82,27.82,0,1,1-28.62-29.21v29.21Z"/>
        <path class="cls-memphis" d="M395.65,453.55H561a3,3,0,0,1,3,3h0a3.05,3.05,0,0,1-3,3H395.65a3.05,3.05,0,0,1-3-3h0A3,3,0,0,1,395.65,453.55Z"/>
        <path class="cls-memphis" d="M395.65,467H561a3.05,3.05,0,0,1,3,3h0a3.05,3.05,0,0,1-3,3H395.65a3.05,3.05,0,0,1-3-3h0A3.05,3.05,0,0,1,395.65,467Z"/>
        <path class="cls-memphis" d="M395.65,480.48H561a3.05,3.05,0,0,1,3,3h0a3.05,3.05,0,0,1-3,3H395.65a3.05,3.05,0,0,1-3-3h0A3.05,3.05,0,0,1,395.65,480.48Z"/>
        <path class="cls-memphis" d="M251.49,266.74,123.94,139.19a2.31,2.31,0,0,0-3.26,0h0a2.32,2.32,0,0,0,0,3.26L248.24,270a2.29,2.29,0,0,0,3.25,0h0A2.31,2.31,0,0,0,251.49,266.74Z"/>
        <path class="cls-memphis" d="M251.49,282.72,123.94,155.17a2.31,2.31,0,0,0-3.26,0h0a2.32,2.32,0,0,0,0,3.26L248.24,286a2.3,2.3,0,0,0,3.25,0h0A2.31,2.31,0,0,0,251.49,282.72Z"/>
        <path class="cls-memphis" d="M251.49,298.7,123.94,171.15a2.31,2.31,0,0,0-3.26,0h0a2.32,2.32,0,0,0,0,3.26L248.24,302a2.31,2.31,0,0,0,3.25,0h0A2.31,2.31,0,0,0,251.49,298.7Z"/>
        <path class="cls-memphis" d="M307.24,582.21l91.46-91.46a2.39,2.39,0,0,1,3.36,0h0a2.39,2.39,0,0,1,0,3.36L310.6,585.57a2.39,2.39,0,0,1-3.36,0h0A2.39,2.39,0,0,1,307.24,582.21Z"/>
        <path class="cls-memphis" d="M307.24,597.21l91.46-91.46a2.37,2.37,0,0,1,3.36,0h0a2.39,2.39,0,0,1,0,3.36L310.6,600.57a2.39,2.39,0,0,1-3.36,0h0A2.39,2.39,0,0,1,307.24,597.21Z"/>
    </g>
</svg>
